# xmcd CD database file
# Copyright (C) 1995-1998 Ti Kan
#
# Track frame offsets:
#	150
#	19221
#	36480
#	54513
#	74395
#	101173
#	121807
#	142271
#	158661
#	174858
#
# Disc length: 2521 seconds
#
# Revision: 1
# Processed by: cddbd v1.4PL0 Copyright (c) Steve Scherf et al.
# Submitted via: CDex 1.30Release
#
DISCID=8a09d70a
DTITLE=Stickshift Annie and the Overdrive - Out of Her Mind
DYEAR=2001
DGENRE=Blues
TTITLE0=High Tech Blues
TTITLE1=I Don't Know
TTITLE2=Troubled Fool
TTITLE3=Moody Woman Blues
TTITLE4=Burning Up
TTITLE5=Miss Phyllis
TTITLE6=Stand Up For Something
TTITLE7=Family Matters
TTITLE8=Out Of Her Mind
TTITLE9=In My Slipper
EXTD=YEAR: 2001 ID3G:   0
EXTT0=
EXTT1=
EXTT2=
EXTT3=
EXTT4=
EXTT5=
EXTT6=
EXTT7=
EXTT8=
EXTT9=
PLAYORDER=
